<svg xmlns="http://www.w3.org/2000/svg" xmlns:xlink="http://www.w3.org/1999/xlink" version="1.1" x="0px" y="0px" viewBox="0 0 100 100" style="enable-background:new 0 0 100 100;" xml:space="preserve">
	<g>
		<path style="" d="M68.106,88.13h-38.17V65.014c-10.44-0.407-18.81-9.027-18.81-19.564   c0-10.797,8.784-19.581,19.58-19.581c2.903,0,5.778,0.657,8.404,1.911c4.078-9.101,13.235-15.11,23.275-15.11   c14.072,0,25.52,11.448,25.52,25.52c0,11.95-8.257,22.216-19.799,24.854V88.13z M32.797,85.268h32.448V60.68l1.177-0.212   c10.791-1.942,18.622-11.311,18.622-22.277c0-12.495-10.165-22.659-22.659-22.659c-9.394,0-17.918,5.928-21.21,14.75l-0.594,1.593   l-1.468-0.858c-2.56-1.495-5.468-2.286-8.407-2.286c-9.219,0-16.719,7.5-16.719,16.719c0,9.218,7.5,16.718,16.719,16.718   c0.101,0,0.199-0.008,0.298-0.015l1.793-0.074V85.268z"></path>
		<path style="" d="M18.58,45.137h-2.146c0-7.438,6.052-13.491,13.491-13.491v2.146   C23.67,33.792,18.58,38.882,18.58,45.137z"></path>
		<g>
			<rect x="37.883" y="70.529" style="" width="2.146" height="9.431"></rect>
			<rect x="47.453" y="70.529" style="" width="2.146" height="9.431"></rect>
			<rect x="57.023" y="70.529" style="" width="2.146" height="9.431" ></rect>
		</g>
		<rect x="31.696" y="78.696" style="" width="35.199" height="2.146"></rect>
	</g>
</svg>
