<svg xmlns="http://www.w3.org/2000/svg" xmlns:xlink="http://www.w3.org/1999/xlink" version="1.1" x="0px" y="0px" viewBox="0 0 100 100" enable-background="new 0 0 100 100" xml:space="preserve"><path d="M89.177,79.368c-9.328-14.696-20.773-27.897-33.357-39.895c9.436-8.032,19.816-14.876,31.294-19.113  c1.347-0.497-1.189-11.274,0-11.713c-14.182,5.236-26.61,14.435-37.693,24.914c-1.894-1.698-3.807-3.375-5.74-5.025  C35.339,21.42,26.593,14.518,17.313,8.647c0.411,0.26-0.059,5.333-0.059,5.856c0,0.586-0.469,5.522,0.059,5.856  c9.016,5.703,17.481,12.404,25.629,19.264c0.061,0.051,0.121,0.104,0.182,0.155c-2.995,3.081-5.89,6.223-8.691,9.366  c-8.52,9.561-16.635,19.734-23.61,30.494c-0.687,1.059-0.059,4.657-0.059,5.856c0,1.111,0.679,4.9,0.059,5.856  c6.807-10.501,14.725-20.386,22.973-29.775c4.882-5.557,10.077-11.114,15.614-16.346c15.131,13.51,28.892,28.717,39.767,45.85  c-0.619-0.977,0.06-4.728,0.06-5.856C89.236,84.009,89.862,80.448,89.177,79.368z"></path></svg>
