<svg xmlns="http://www.w3.org/2000/svg" xmlns:xlink="http://www.w3.org/1999/xlink" version="1.1" x="0px" y="0px" viewBox="0 0 283.46 283.46" enable-background="new 0 0 283.46 283.46" xml:space="preserve">
	<path fill="#000000" d="M67.145,206.593l15.27-0.014c0,4.229-3.421,7.652-7.636,7.652C70.563,214.233,67.145,210.811,67.145,206.593  z M221.743,214.233c4.215,0,7.635-3.424,7.635-7.651l-15.269,0.014C214.109,210.811,217.527,214.233,221.743,214.233z   M98.156,206.591c0,12.912-10.463,23.382-23.377,23.382c-12.919,0-23.387-10.47-23.387-23.382c0-12.909,10.468-23.379,23.387-23.379  C87.687,183.212,98.156,193.682,98.156,206.591z M86.208,206.591c0-6.311-5.117-11.428-11.429-11.428  c-6.311,0-11.43,5.107-11.43,11.428c0,6.314,5.119,11.438,11.43,11.438C81.09,218.03,86.208,212.906,86.208,206.591z   M245.119,206.591c0,12.912-10.462,23.382-23.376,23.382c-12.919,0-23.388-10.47-23.388-23.382  c0-12.909,10.469-23.379,23.388-23.379C234.65,183.212,245.119,193.682,245.119,206.591z M233.171,206.591  c0-6.311-5.118-11.428-11.43-11.428s-11.431,5.107-11.431,11.428c0,6.314,5.119,11.438,11.431,11.438  S233.171,212.906,233.171,206.591z M278.742,205.369v2.938c0,1.656-1.343,3-3,3c0,0-23.338-0.023-23.337-0.025  c-1.767-0.048-3.186-1.492-3.186-3.271c0-0.004,0.001-0.01,0.001-0.016c-0.002,0,0-0.861,0-1.4c0-15.293-12.4-27.693-27.69-27.693  c-15.303,0-27.702,12.4-27.702,27.693c0,0.441,0.006,1.384,0.006,1.416c0,1.797-1.446,3.254-3.238,3.273v0.002  c0,0-84.94-0.002-84.939-0.005c-1.767-0.048-3.186-1.491-3.186-3.271c0-0.006,0.001-0.012,0.001-0.016c-0.002-0.002,0-0.863,0-1.402  c0-15.293-12.4-27.692-27.69-27.692c-15.303,0-27.702,12.399-27.702,27.692c0,0.441,0.006,1.385,0.006,1.416  c0,1.798-1.446,3.254-3.238,3.273v0.002l-31.014,0.002c-1.656,0-3-1.344-3-3v-2.953c0-1.658,1.344-3,3-3H34.42v-3.291H17.24  c-1.657,0-3-1.344-3-3l2.588-41.867c0.184-1.733,1.241-2.322,3-3c0,0,12.023-3.061,21.368-5.366l-12.084,44.685  c-0.204,0.754,0.243,1.532,0.999,1.737c0.124,0.032,0.248,0.049,0.37,0.049c0.625,0,1.197-0.416,1.367-1.048l12.492-46.193  c0.004-0.002,0.007-0.002,0.01-0.002l8.121-30.036c0,0,5.772-21.702,45.376-21.702c2.839,0,5.416,0,7.766,0v107.66  c0,0.782,0.635,1.418,1.417,1.418c0.783,0,1.418-0.636,1.418-1.418V95.835c0-1.48,1.455-2.553,2.965-2.553h22.145v-5.075H121.67  c-1.657,0-3-1.344-3-3V69.532c0-1.656,1.343-3,3-3h132.812c1.657,0,3,1.344,3,3v15.676c0,1.656-1.343,3-3,3h-10.096v5.075h25.453  c1.656,0,3,1.335,3,2.982v106.104h2.903C277.399,202.369,278.742,203.71,278.742,205.369z M76.713,120.273H62.29  c-1.009,0-2.045,0.819-2.311,1.827l-5.092,19.571c-0.241,1.028,0.123,2.333,0.955,3.384c0.611,0.772,2.008,2.067,4.477,2.067h6.997  l-8.587-8.254c-0.799-0.768-0.959-1.901-0.355-2.528c0.611-0.638,1.729-0.525,2.541,0.256l10.951,10.526h4.848V120.273  L76.713,120.273z M79.872,147.125h17.872c1.009,0,1.827-0.82,1.827-1.828V122.1c0-1.008-0.818-1.827-1.827-1.827H79.872V147.125z   M95.578,153.026c-1.39,0-2.421,0.537-3.089,1.334h-9.656c-3.578,0-3.578,5.354,0,5.354H92.5c0.674,0.804,1.704,1.342,3.096,1.342  C100.945,161.055,100.945,153.026,95.578,153.026z M136.39,93.283h105.16v-5.075H136.39V93.283z M258.519,103.78  c-0.342,4.094-3.771,7.312-7.953,7.312c-3.688,0-6.793-2.503-7.709-5.903c-0.915,3.4-4.018,5.903-7.707,5.903  c-3.688,0-6.793-2.503-7.709-5.903c-0.915,3.4-4.019,5.903-7.708,5.903c-3.688,0-6.792-2.503-7.708-5.903  c-0.915,3.4-4.019,5.903-7.708,5.903c-3.688,0-6.792-2.503-7.708-5.903c-0.915,3.4-4.019,5.903-7.708,5.903  c-3.688,0-6.792-2.503-7.708-5.903c-0.916,3.4-4.019,5.903-7.708,5.903c-3.688,0-6.793-2.503-7.708-5.903  c-0.916,3.4-4.02,5.903-7.708,5.903s-6.793-2.503-7.708-5.903c-0.916,3.4-4.019,5.903-7.708,5.903c-3.688,0-6.793-2.503-7.708-5.903  c-0.916,3.4-4.02,5.903-7.709,5.903c-4.308,0-7.815-3.413-7.976-7.682h-0.001v52.272c0,2.396,1.95,4.346,4.347,4.346h130.566  c2.396,0,4.347-1.948,4.347-4.346V103.78L258.519,103.78z M121.953,155.682c0,0.911,0.742,1.653,1.653,1.653h130.566  c0.91,0,1.652-0.742,1.652-1.653v-10.795H121.952L121.953,155.682L121.953,155.682z"></path>
</svg>
