
<svg xmlns="http://www.w3.org/2000/svg" xmlns:xlink="http://www.w3.org/1999/xlink" version="1.1" x="0px" y="0px" viewBox="0 0 100 100" style="enable-background:new 0 0 100 100;" xml:space="preserve">
<path d="M72.453,22c0.391-0.391,1.023-0.391,1.414,0s0.391,1.023,0,1.414L61.812,35.47c-0.195,0.195-0.451,0.293-0.707,0.293  s-0.512-0.098-0.707-0.293c-0.391-0.391-0.391-1.023,0-1.414L72.453,22z"></path><path d="M75.843,25.391c0.391-0.391,1.023-0.391,1.414,0s0.391,1.023,0,1.414L65.202,38.86c-0.195,0.195-0.451,0.293-0.707,0.293  s-0.512-0.098-0.707-0.293c-0.391-0.391-0.391-1.023,0-1.414L75.843,25.391z"></path><path d="M79.234,28.781c0.391-0.391,1.023-0.391,1.414,0s0.391,1.023,0,1.414L68.593,42.251c-0.195,0.195-0.451,0.293-0.707,0.293  s-0.512-0.098-0.707-0.293c-0.391-0.391-0.391-1.023,0-1.414L79.234,28.781z"></path><ellipse transform="matrix(0.7071 -0.7071 0.7071 0.7071 -53.0763 38.2158)" cx="19.592" cy="83.177" rx="1.401" ry="1.401"></ellipse><ellipse transform="matrix(0.7071 -0.7071 0.7071 0.7071 -35.5529 80.3564)" cx="79.222" cy="83.094" rx="1.401" ry="1.401"></ellipse><path d="M12.334,16.206c-2.867,2.866-3.342,8.119-1.338,14.789c1.626,5.414,4.793,11.126,7.88,14.213  c3.096,3.097,7.163,4.645,11.23,4.645c3.138,0,6.27-0.932,8.962-2.775l5.546,6.04l-5.065,4.65l-0.738-0.738  c-0.391-0.391-1.023-0.391-1.414,0L14.791,79.637c-2.3,2.3-2.3,6.042,0,8.342c1.15,1.15,2.66,1.725,4.171,1.725  s3.021-0.574,4.171-1.725l22.606-22.606c0.391-0.391,0.391-1.023,0-1.414l-0.737-0.737l4.444-4.84l4.368,4.757l-0.737,0.737  c-0.188,0.188-0.293,0.441-0.293,0.707s0.105,0.52,0.293,0.707l22.607,22.606c1.15,1.149,2.661,1.725,4.171,1.725  c1.511,0,3.021-0.574,4.171-1.725c2.3-2.3,2.3-6.042,0-8.342L61.417,56.948c-0.391-0.391-1.023-0.391-1.414,0l-0.737,0.737  l-4.983-4.574l5.338-5.814c1.859,1.656,4.224,2.571,6.734,2.571c2.711,0,5.26-1.056,7.177-2.973l16.866-16.866  c0.188-0.188,0.293-0.441,0.293-0.707s-0.105-0.52-0.293-0.707L74.153,12.371c-0.391-0.391-1.023-0.391-1.414,0L55.874,29.236  c-3.815,3.815-3.941,9.93-0.4,13.911l-6.022,5.528l-6.242-5.731c1.801-2.621,2.778-5.716,2.778-8.965  c0-4.243-1.652-8.231-4.652-11.23c-3.086-3.087-8.798-6.254-14.213-7.881C20.453,12.864,15.2,13.339,12.334,16.206z M60.593,45.481  l-3.305-3.306c-3.177-3.178-3.177-8.348,0-11.525l16.158-16.158l14.831,14.83L72.118,45.481c-1.54,1.539-3.586,2.387-5.763,2.387  S62.132,47.021,60.593,45.481z M58.11,45.984l-5.3,5.773l-1.879-1.726l5.854-5.373L58.11,45.984z M38.104,59.151l5.514,5.514  L21.718,86.564c-1.521,1.52-3.993,1.52-5.514,0c-1.52-1.521-1.52-3.993,0-5.514L38.104,59.151z M55.197,64.583l5.514-5.514  l21.9,21.899c1.52,1.521,1.52,3.993,0,5.514c-1.473,1.473-4.041,1.473-5.514,0L55.197,64.583z M45.966,54.591l2.122,2.312  l-4.471,4.869l-2.62-2.619L45.966,54.591z M40.705,45.902l1.326-1.326l7.789,7.15l2.375,2.181c0,0,0,0,0,0l5.656,5.193l-2.622,2.622  L40.705,45.902z M13.748,17.62c1.306-1.306,3.385-1.966,6.016-1.966c1.98,0,4.273,0.374,6.784,1.129  c5.126,1.539,10.5,4.505,13.374,7.379c2.622,2.622,4.066,6.108,4.066,9.816c0,3.707-1.444,7.193-4.066,9.815  c-5.412,5.412-14.219,5.412-19.632,0c-2.874-2.874-5.839-8.248-7.379-13.375C11.155,24.573,11.46,19.908,13.748,17.62z"></path></svg>
